<svg xmlns="http://www.w3.org/2000/svg" viewBox="0 0 100 100" width="48" height="48">
  <defs>
    <linearGradient id="truckGradient" x1="0%" y1="0%" x2="100%" y2="100%">
      <stop offset="0%" style="stop-color:#4a7c59;stop-opacity:1" />
      <stop offset="100%" style="stop-color:#2f5233;stop-opacity:1" />
    </linearGradient>
  </defs>
  
  <!-- Cabina del camión -->
  <rect x="15" y="35" width="25" height="25" rx="3" fill="url(#truckGradient)" stroke="#1e3a20" stroke-width="1.5"/>
  
  <!-- Carga del camión -->
  <rect x="35" y="25" width="35" height="35" rx="3" fill="url(#truckGradient)" stroke="#1e3a20" stroke-width="1.5"/>
  
  <!-- Ruedas -->
  <circle cx="25" cy="70" r="8" fill="#8fbc8f" stroke="#1e3a20" stroke-width="2"/>
  <circle cx="55" cy="70" r="8" fill="#8fbc8f" stroke="#1e3a20" stroke-width="2"/>
  
  <!-- Centros de ruedas -->
  <circle cx="25" cy="70" r="3" fill="#2f5233"/>
  <circle cx="55" cy="70" r="3" fill="#2f5233"/>
  
  <!-- Ventana -->
  <rect x="18" y="38" width="15" height="12" rx="2" fill="#8fbc8f" opacity="0.7"/>
  
  <!-- Líneas de velocidad (sostenible) -->
  <path d="M75 30 L 85 30" stroke="#689f69" stroke-width="3" stroke-linecap="round" opacity="0.8"/>
  <path d="M75 40 L 82 40" stroke="#689f69" stroke-width="3" stroke-linecap="round" opacity="0.6"/>
  <path d="M75 50 L 80 50" stroke="#689f69" stroke-width="3" stroke-linecap="round" opacity="0.4"/>
  
  <!-- Hoja pequeña en la carga (eco-friendly) -->
  <path d="M45 35 C 45 32, 47 30, 50 32 C 51 33, 51 36, 50 37 C 48 38, 46 37, 45 35 Z" 
        fill="#8fbc8f" opacity="0.9"/>
</svg>