<svg xmlns="http://www.w3.org/2000/svg" viewBox="0 0 100 100" width="48" height="48">
  <defs>
    <linearGradient id="awardGradient" x1="0%" y1="0%" x2="100%" y2="100%">
      <stop offset="0%" style="stop-color:#4a7c59;stop-opacity:1" />
      <stop offset="100%" style="stop-color:#2f5233;stop-opacity:1" />
    </linearGradient>
    <linearGradient id="ribbonGradient" x1="0%" y1="0%" x2="100%" y2="100%">
      <stop offset="0%" style="stop-color:#8fbc8f;stop-opacity:1" />
      <stop offset="100%" style="stop-color:#689f69;stop-opacity:1" />
    </linearGradient>
  </defs>
  
  <!-- Medalla principal -->
  <circle cx="50" cy="40" r="22" fill="url(#awardGradient)" stroke="#1e3a20" stroke-width="2"/>
  
  <!-- Círculo interior -->
  <circle cx="50" cy="40" r="16" fill="#8fbc8f" stroke="#2f5233" stroke-width="1.5"/>
  
  <!-- Estrella central -->
  <path d="M50 28 L52 34 L58 34 L53.5 38 L55.5 44 L50 40.5 L44.5 44 L46.5 38 L42 34 L48 34 Z" 
        fill="url(#awardGradient)" stroke="#1e3a20" stroke-width="1"/>
  
  <!-- Cintas -->
  <path d="M35 55 L42 48 L46 52 L40 70 L32 65 Z" 
        fill="url(#ribbonGradient)" stroke="#1e3a20" stroke-width="1.5"/>
  <path d="M65 55 L58 48 L54 52 L60 70 L68 65 Z" 
        fill="url(#ribbonGradient)" stroke="#1e3a20" stroke-width="1.5"/>
  
  <!-- Detalles en las cintas -->
  <path d="M38 58 L36 62" stroke="#2f5233" stroke-width="1" stroke-linecap="round"/>
  <path d="M62 58 L64 62" stroke="#2f5233" stroke-width="1" stroke-linecap="round"/>
  
  <!-- Punto de brillo -->
  <circle cx="46" cy="36" r="2" fill="#ffffff" opacity="0.6"/>
</svg>