<svg width="200" height="200" xmlns="http://www.w3.org/2000/svg" viewBox="0 0 200 200">
  <defs>
    <linearGradient id="bgGrad" x1="0%" y1="0%" x2="100%" y2="100%">
      <stop offset="0%" style="stop-color:#f8f9fa;stop-opacity:1" />
      <stop offset="100%" style="stop-color:#e9ecef;stop-opacity:1" />
    </linearGradient>
    
    <linearGradient id="leafGrad" x1="0%" y1="0%" x2="100%" y2="100%">
      <stop offset="0%" style="stop-color:#28a745;stop-opacity:1" />
      <stop offset="100%" style="stop-color:#20c997;stop-opacity:1" />
    </linearGradient>
  </defs>
  
  <!-- Fondo -->
  <rect width="200" height="200" fill="url(#bgGrad)" rx="8"/>
  
  <!-- Círculo de fondo -->
  <circle cx="100" cy="80" r="45" fill="white" opacity="0.9"/>
  
  <!-- Hoja simple estilizada -->
  <path d="M 100 110 Q 80 90 70 65 Q 75 55 85 60 Q 100 70 100 110" fill="url(#leafGrad)"/>
  <path d="M 100 110 Q 120 90 130 65 Q 125 55 115 60 Q 100 70 100 110" fill="url(#leafGrad)"/>
  <path d="M 100 95 Q 100 75 100 60 Q 105 55 100 60 Q 95 55 100 60 Q 100 75 100 95" fill="url(#leafGrad)"/>
  
  <!-- Tallo -->
  <rect x="99" y="95" width="2" height="15" fill="url(#leafGrad)" rx="1"/>
  
  <!-- Texto -->
  <text x="100" y="140" font-family="-apple-system, BlinkMacSystemFont, sans-serif" 
        font-size="12" font-weight="600" fill="#28a745" text-anchor="middle">
    Verde Nexo
  </text>
  
  <text x="100" y="155" font-family="-apple-system, BlinkMacSystemFont, sans-serif" 
        font-size="10" fill="#6c757d" text-anchor="middle" opacity="0.8">
    Sin imagen
  </text>
</svg>