<?xml version="1.0" encoding="UTF-8"?>
<svg id="Capa_1" xmlns="http://www.w3.org/2000/svg" version="1.1" viewBox="0 0 214 53">
  <!-- Generator: Adobe Illustrator 29.8.1, SVG Export Plug-In . SVG Version: 2.1.1 Build 2)  -->
  <path d="M53.92.8c1.65,13.74-4.62,29-18.01,34.31-1.71.68-3.76,1.25-5.55,1.72-3.32.86-5.27.07-6.91,3.69s-1.52,7.76-2.01,11.53c-.33.48-1.87-.2-2.46-.02-1.45-11.34,4.59-21.82,12.75-29.15,1.04-.94,2.41-1.63,3.34-2.75.04-.89-2.68.44-2.94.59-3.77,2.05-7.88,6.38-10.37,9.86-.54.76-1.83,3.49-2.64,3.37-1.29-.19-3.97-4.76-4.42-6.01-3.66-10.29,6.57-17.78,15.03-20.61,6.51-2.18,13.99-2.18,20.2-4.73.6-.25,3.72-2.08,3.99-1.8Z"/>
  <path d="M155.23,22.4l4.32-.1c.09.05.39.53.39.59v19.44c0,.73-3.78.59-4.43.31-2.49-3.19-4.34-7.28-6.87-10.4-.14-.17-.87-.97-.87-.31v10.41c0,1.08-1.92.48-2.45.47-.84-.02-1.57.56-2.26-.28v-20.12c1.03-.24,3.57-.44,4.43.19l7.26,10.81.49-.29v-10.7Z"/>
  <path d="M.92,18.47c10.61,3.52,16.16,14.28,15.51,25.13-4.19-.7-8.9-3.91-11.47-7.28-1.57-2.07-4.04-7.15-4.04-9.7v-8.15Z"/>
  <path d="M121.27,22v20.52l-.29.29h-3.73l-.52-.95c-.94-.25-1.57.52-2.37.81-7.48,2.71-9.76-5.19-8.06-11.01,1.34-4.59,6.04-5.45,9.78-2.98l.49-.3v-6.38h4.71ZM111.52,31.89c-1.96,1.97-1.04,9.42,3.41,7.24,2.1-1.03,2.21-5.9.71-7.28-.98-.9-3.19-.9-4.13.04Z"/>
  <path d="M64.54,36.13h.56s4.16-13.41,4.16-13.41c.47-.73,3.97-.67,4.49-.42.22.11.37.35.39.59l-6.09,19.58c-.18.33-.75.33-1.07.35-.8.06-5.13.15-5.42-.33l-5.98-18.71c-.2-.66-.19-1.43.6-1.57s3.75-.17,4.19.51l4.16,13.42Z"/>
  <path d="M204.08,27.36c6.88-.7,9.71,3.58,8.86,10.04-.96,7.31-14.11,8.55-15.47-.2-.81-5.2,1.01-9.26,6.62-9.84ZM203.21,31.49c-1.12,1.13-1.1,5.2-.56,6.61.98,2.54,4.79,2.17,5.18-.7.15-1.09.13-4.23-.28-5.18-.68-1.61-3.19-1.89-4.35-.72Z"/>
  <path d="M177.96,38.74c.98.98-1.41,2.68-2.17,3.13-5.82,3.48-12.75.34-12.51-6.8.37-11.22,16.79-9.9,15.22,1.07-.26.29-.61.35-.98.39-2.62.3-5.73-.26-8.41.04-1.18.35-.7,3.46,1.73,3.51,1.7.03,2.05-1.37,3.35-1.57.6-.09,3.43-.11,3.77.23ZM168.68,33.78h4.52c.82-1-.12-2.82-1.23-3.28-2.05-.86-3.47.84-3.58,2.8l.3.49Z"/>
  <path d="M131.61,27.18c4.7-.18,8,3.28,8.12,7.89.02.59-.23,1.33-.9,1.46-2.66.25-5.86-.32-8.45,0-.54.07-.83.3-.84.89-.04,1.4.42,2.37,1.88,2.61,2.3.38,2.31-1.28,3.9-1.5.68-.1,3.43-.2,3.72.37.78,1.58-3.1,3.58-4.31,3.94-12.59,3.74-13.73-15.24-3.12-15.64ZM129.51,33.78h4.81c.86,0-.15-2.52-.89-3.04-2.17-1.51-4.35.73-3.92,3.04Z"/>
  <path d="M80.53,36.53c-1.06.19-.78,2.21-.11,2.86.62.61,1.95.85,2.77.59.75-.23,1.39-1.38,2.24-1.49.69-.09,3.66-.15,3.94.4.47,1.2-1.84,2.82-2.78,3.3-6.25,3.22-12.57-.75-11.82-7.89.99-9.43,14.08-9.09,15.07-.79.06.49.2,3.02-.47,3.02h-8.84ZM79.94,33.78h4.71c.7,0,0-2.86-1.27-3.25-1.08-.33-2.45-.15-3.12.82-.27.39-.98,2.22-.32,2.43Z"/>
  <path d="M180.07,42.82l-.3-.48,4.69-6.52c.18-.29.27-.62.24-.96-.07-1.1-4.78-6.31-4.45-6.97,1.13-.84,3.18,0,4.62-.09.27.19.47.45.67.7.6.72,1.68,3.13,2.57,3.14.28.06.27-.17.36-.26.56-.57,2.2-3.69,2.78-3.69h4.42c.04.34-.02.61-.15.93-.65,1.58-3.02,3.87-3.93,5.49-.18.33-.47.75-.43,1.14l4.92,7.08c.04.16-.22.48-.3.48h-4.32c-.62,0-2.48-3.91-3.53-4.13-.99.27-2.9,4.13-3.53,4.13h-4.32Z"/>
  <path d="M97.22,27.7l.51,1.15c1.17.03,2.05-.84,3.27-1.1,1.07-.23,1.88-.15,2.96-.03.37.22.29,3.68.03,4.29h-4.61c-.37,0-1.47,1.26-1.47,1.67v8.84l-.29.29h-4.32l-.29-.29v-14.53l.29-.29h3.93Z"/>
</svg>